<svg width="420" height="215" viewBox="0 0 420 215" fill="none" xmlns="http://www.w3.org/2000/svg">
<rect width="420" height="215" rx="12" fill="#4EB7F2"/>
<mask id="mask0_3_293" style="mask-type:alpha" maskUnits="userSpaceOnUse" x="0" y="0" width="420" height="215">
<rect width="420" height="215" rx="12" fill="#396B5F"/>
</mask>
<g mask="url(#mask0_3_293)">
<g filter="url(#filter0_f_3_293)">
<ellipse cx="324.895" cy="32.5" rx="290.812" ry="228.5" fill="white" fill-opacity="0.1"/>
</g>
<ellipse cx="-11.5" cy="213" rx="187.5" ry="77" fill="black" fill-opacity="0.04"/>
<ellipse cx="410" cy="32.5" rx="115" ry="60.5" fill="black" fill-opacity="0.04"/>
<path d="M632.829 7.22339C520.985 20.4929 345.636 47.3471 434.843 132.119C548.365 239.997 825.778 211.736 702.57 295" stroke="white" stroke-opacity="0.14"/>
<path d="M592.844 5.96655C481.001 19.2361 305.651 46.0903 394.858 130.862C508.38 238.741 785.793 210.479 662.585 293.743" stroke="white" stroke-opacity="0.14"/>
<path d="M552.86 2.19678C441.016 15.4663 265.666 42.3205 354.873 127.092C468.396 234.971 745.809 206.71 622.6 289.973" stroke="white" stroke-opacity="0.14"/>
<path d="M513.373 -2.82996C402.083 10.4396 227.601 37.2938 316.367 122.066C429.327 229.944 705.367 201.683 582.768 284.947" stroke="white" stroke-opacity="0.14"/>
<path d="M474.489 -7.85669C362.645 5.41284 187.295 32.2671 276.503 117.039C390.025 224.917 667.438 196.656 544.229 279.92" stroke="white" stroke-opacity="0.14"/>
<path d="M435.003 -12.8833C323.713 0.386233 149.231 27.2405 237.997 112.012C350.957 219.891 626.997 191.63 504.398 274.893" stroke="white" stroke-opacity="0.14"/>
<path d="M395.018 -17.91C283.728 -4.6405 109.246 22.2137 198.012 106.986C310.972 214.864 587.012 186.603 464.413 269.867" stroke="white" stroke-opacity="0.14"/>
<path d="M356.134 -22.9366C244.291 -9.66711 68.9409 17.1871 158.148 101.959C271.67 209.837 549.083 181.576 425.875 264.84" stroke="white" stroke-opacity="0.14"/>
<path d="M316.149 -26.7065C204.305 -13.437 28.9554 13.4172 118.163 98.1891C231.685 206.067 509.098 177.806 385.889 261.07" stroke="white" stroke-opacity="0.14"/>
<path d="M276.663 -29.22C165.373 -15.9504 -9.1088 10.9038 79.6567 95.6757C192.617 203.554 468.657 175.293 346.058 258.557" stroke="white" stroke-opacity="0.14"/>
<path d="M236.678 -31.7333C125.388 -18.4637 -49.0938 8.39047 39.6717 93.1624C152.632 201.041 428.672 172.78 306.073 256.043" stroke="white" stroke-opacity="0.14"/>
<path d="M196.693 -34.2467C85.4029 -20.9772 -89.0789 5.87705 -0.313342 90.649C112.647 198.527 388.687 170.266 266.088 253.53" stroke="white" stroke-opacity="0.14"/>
<path d="M156.708 -35.5033C45.4181 -22.2338 -129.064 4.62046 -40.2981 89.3924C72.6622 197.271 348.702 169.01 226.103 252.273" stroke="white" stroke-opacity="0.14"/>
<path d="M116.723 -35.5033C5.43336 -22.2338 -169.048 4.62046 -80.2829 89.3924C32.6775 197.271 308.717 169.01 186.119 252.273" stroke="white" stroke-opacity="0.14"/>
<path d="M77.8394 -36.76C-34.004 -23.4905 -209.354 3.36374 -120.147 88.1357C-6.62433 196.014 270.789 167.753 147.58 251.017" stroke="white" stroke-opacity="0.14"/>
<path d="M37.8544 -35.5033C-73.989 -22.2338 -249.339 4.62046 -160.132 89.3924C-46.6094 197.271 230.804 169.01 107.595 252.273" stroke="white" stroke-opacity="0.14"/>
<path d="M-2.13035 -34.2467C-113.974 -20.9772 -289.324 5.87705 -200.116 90.649C-86.5941 198.527 190.819 170.266 67.6103 253.53" stroke="white" stroke-opacity="0.14"/>
<path d="M-42.1147 -31.7333C-153.958 -18.4637 -329.308 8.39047 -240.101 93.1624C-126.578 201.041 150.835 172.78 27.626 256.043" stroke="white" stroke-opacity="0.14"/>
<path d="M-82.0999 -29.22C-193.943 -15.9504 -369.293 10.9038 -280.086 95.6757C-166.564 203.554 110.849 175.293 -12.3592 258.557" stroke="white" stroke-opacity="0.14"/>
</g>
<path d="M157.064 150.24C161.072 150.24 164.096 147.12 164.096 141.6C164.096 136.08 161.072 132.96 157.064 132.96C153.08 132.96 150.056 136.08 150.056 141.6C150.056 147.12 153.08 150.24 157.064 150.24ZM157.064 147.528C154.784 147.528 153.2 145.656 153.2 141.6C153.2 137.544 154.784 135.672 157.064 135.672C159.368 135.672 160.952 137.544 160.952 141.6C160.952 145.656 159.368 147.528 157.064 147.528ZM171.868 132.96C168.436 132.96 165.724 135.072 165.724 138.408C165.724 141.552 168.196 143.568 171.508 143.568C173.38 143.568 174.988 142.992 175.996 141.816V141.84C175.996 145.656 174.004 147.624 170.836 147.624C169.66 147.624 168.556 147.408 167.644 146.808L166.492 149.16C167.62 149.88 169.228 150.24 170.908 150.24C175.78 150.24 179.14 147.072 179.14 141.312C179.14 135.912 176.452 132.96 171.868 132.96ZM172.108 141.12C170.068 141.12 168.748 140.016 168.748 138.264C168.748 136.512 170.092 135.408 172.036 135.408C174.268 135.408 175.516 136.656 175.516 138.24C175.516 139.896 174.124 141.12 172.108 141.12ZM180.27 133.2V135.816H183.822V150H186.942V133.2H180.27ZM201.171 141.168C202.539 140.424 203.307 139.224 203.307 137.64C203.307 134.76 200.763 132.96 197.019 132.96C193.299 132.96 190.779 134.76 190.779 137.64C190.779 139.224 191.523 140.424 192.867 141.168C191.139 141.96 190.179 143.328 190.179 145.176C190.179 148.296 192.843 150.24 197.019 150.24C201.195 150.24 203.907 148.296 203.907 145.176C203.907 143.328 202.923 141.96 201.171 141.168ZM197.019 135.408C198.939 135.408 200.235 136.272 200.235 137.784C200.235 139.224 199.011 140.136 197.019 140.136C195.051 140.136 193.851 139.224 193.851 137.784C193.851 136.272 195.099 135.408 197.019 135.408ZM197.019 147.792C194.715 147.792 193.323 146.784 193.323 145.08C193.323 143.424 194.715 142.392 197.019 142.392C199.323 142.392 200.763 143.424 200.763 145.08C200.763 146.784 199.323 147.792 197.019 147.792ZM223.46 141.168C224.828 140.424 225.596 139.224 225.596 137.64C225.596 134.76 223.052 132.96 219.308 132.96C215.588 132.96 213.068 134.76 213.068 137.64C213.068 139.224 213.812 140.424 215.156 141.168C213.428 141.96 212.468 143.328 212.468 145.176C212.468 148.296 215.132 150.24 219.308 150.24C223.484 150.24 226.196 148.296 226.196 145.176C226.196 143.328 225.212 141.96 223.46 141.168ZM219.308 135.408C221.228 135.408 222.524 136.272 222.524 137.784C222.524 139.224 221.3 140.136 219.308 140.136C217.34 140.136 216.14 139.224 216.14 137.784C216.14 136.272 217.388 135.408 219.308 135.408ZM219.308 147.792C217.004 147.792 215.612 146.784 215.612 145.08C215.612 143.424 217.004 142.392 219.308 142.392C221.612 142.392 223.052 143.424 223.052 145.08C223.052 146.784 221.612 147.792 219.308 147.792ZM227.356 133.2V135.816H230.908V150H234.028V133.2H227.356ZM241.609 147.36L246.097 143.088C248.425 140.904 248.881 139.416 248.881 137.784C248.881 134.808 246.529 132.96 242.881 132.96C240.121 132.96 237.793 133.992 236.497 135.744L238.681 137.424C239.617 136.224 240.985 135.672 242.617 135.672C244.681 135.672 245.737 136.56 245.737 138.096C245.737 139.032 245.449 140.016 243.817 141.576L237.145 147.912V150H249.529V147.36H241.609ZM265.954 143.544H262.978V140.16H260.05V143.544H254.554L262.354 133.2H259.018L250.738 144.024V146.184H259.954V150H262.978V146.184H265.954V143.544ZM280.908 150.24C284.916 150.24 287.94 147.12 287.94 141.6C287.94 136.08 284.916 132.96 280.908 132.96C276.924 132.96 273.9 136.08 273.9 141.6C273.9 147.12 276.924 150.24 280.908 150.24ZM280.908 147.528C278.628 147.528 277.044 145.656 277.044 141.6C277.044 137.544 278.628 135.672 280.908 135.672C283.212 135.672 284.796 137.544 284.796 141.6C284.796 145.656 283.212 147.528 280.908 147.528ZM297.056 150.24C301.064 150.24 304.088 147.12 304.088 141.6C304.088 136.08 301.064 132.96 297.056 132.96C293.072 132.96 290.048 136.08 290.048 141.6C290.048 147.12 293.072 150.24 297.056 150.24ZM297.056 147.528C294.776 147.528 293.192 145.656 293.192 141.6C293.192 137.544 294.776 135.672 297.056 135.672C299.36 135.672 300.944 137.544 300.944 141.6C300.944 145.656 299.36 147.528 297.056 147.528ZM321.173 143.544H318.197V140.16H315.269V143.544H309.773L317.573 133.2H314.237L305.957 144.024V146.184H315.173V150H318.197V146.184H321.173V143.544ZM326.663 147.36L331.151 143.088C333.479 140.904 333.935 139.416 333.935 137.784C333.935 134.808 331.583 132.96 327.935 132.96C325.175 132.96 322.847 133.992 321.551 135.744L323.735 137.424C324.671 136.224 326.039 135.672 327.671 135.672C329.735 135.672 330.791 136.56 330.791 138.096C330.791 139.032 330.503 140.016 328.871 141.576L322.199 147.912V150H334.583V147.36H326.663ZM353.913 141.168C355.281 140.424 356.049 139.224 356.049 137.64C356.049 134.76 353.505 132.96 349.761 132.96C346.041 132.96 343.521 134.76 343.521 137.64C343.521 139.224 344.265 140.424 345.609 141.168C343.881 141.96 342.921 143.328 342.921 145.176C342.921 148.296 345.585 150.24 349.761 150.24C353.937 150.24 356.649 148.296 356.649 145.176C356.649 143.328 355.665 141.96 353.913 141.168ZM349.761 135.408C351.681 135.408 352.977 136.272 352.977 137.784C352.977 139.224 351.753 140.136 349.761 140.136C347.793 140.136 346.593 139.224 346.593 137.784C346.593 136.272 347.841 135.408 349.761 135.408ZM349.761 147.792C347.457 147.792 346.065 146.784 346.065 145.08C346.065 143.424 347.457 142.392 349.761 142.392C352.065 142.392 353.505 143.424 353.505 145.08C353.505 146.784 352.065 147.792 349.761 147.792ZM357.809 133.2V135.816H361.361V150H364.481V133.2H357.809ZM372.062 147.36L376.55 143.088C378.878 140.904 379.334 139.416 379.334 137.784C379.334 134.808 376.982 132.96 373.334 132.96C370.574 132.96 368.246 133.992 366.95 135.744L369.134 137.424C370.07 136.224 371.438 135.672 373.07 135.672C375.134 135.672 376.19 136.56 376.19 138.096C376.19 139.032 375.902 140.016 374.27 141.576L367.598 147.912V150H379.982V147.36H372.062ZM387.447 132.96C384.015 132.96 381.303 135.072 381.303 138.408C381.303 141.552 383.775 143.568 387.087 143.568C388.959 143.568 390.567 142.992 391.575 141.816V141.84C391.575 145.656 389.583 147.624 386.415 147.624C385.239 147.624 384.135 147.408 383.223 146.808L382.071 149.16C383.199 149.88 384.807 150.24 386.487 150.24C391.359 150.24 394.719 147.072 394.719 141.312C394.719 135.912 392.031 132.96 387.447 132.96ZM387.687 141.12C385.647 141.12 384.327 140.016 384.327 138.264C384.327 136.512 385.671 135.408 387.615 135.408C389.847 135.408 391.095 136.656 391.095 138.24C391.095 139.896 389.703 141.12 387.687 141.12Z" fill="white"/>
<path d="M313.936 172.8V184H312.784V173.824H310.144V172.8H313.936ZM324.261 182.976V184H316.405V183.184L321.061 178.624C321.648 178.048 322.043 177.552 322.245 177.136C322.459 176.709 322.565 176.283 322.565 175.856C322.565 175.195 322.336 174.683 321.877 174.32C321.429 173.947 320.784 173.76 319.941 173.76C318.629 173.76 317.611 174.176 316.885 175.008L316.069 174.304C316.507 173.792 317.061 173.397 317.733 173.12C318.416 172.843 319.184 172.704 320.037 172.704C321.179 172.704 322.08 172.976 322.741 173.52C323.413 174.053 323.749 174.789 323.749 175.728C323.749 176.304 323.621 176.859 323.365 177.392C323.109 177.925 322.624 178.539 321.909 179.232L318.101 182.976H324.261ZM329.911 170.528H330.951L325.671 185.6H324.631L329.911 170.528ZM338.871 182.976V184H331.015V183.184L335.671 178.624C336.257 178.048 336.652 177.552 336.855 177.136C337.068 176.709 337.175 176.283 337.175 175.856C337.175 175.195 336.945 174.683 336.487 174.32C336.039 173.947 335.393 173.76 334.551 173.76C333.239 173.76 332.22 174.176 331.495 175.008L330.679 174.304C331.116 173.792 331.671 173.397 332.343 173.12C333.025 172.843 333.793 172.704 334.647 172.704C335.788 172.704 336.689 172.976 337.351 173.52C338.023 174.053 338.359 174.789 338.359 175.728C338.359 176.304 338.231 176.859 337.975 177.392C337.719 177.925 337.233 178.539 336.519 179.232L332.711 182.976H338.871ZM344.718 184.096C343.854 184.096 343.081 183.867 342.398 183.408C341.726 182.949 341.198 182.293 340.814 181.44C340.441 180.576 340.254 179.563 340.254 178.4C340.254 177.237 340.441 176.229 340.814 175.376C341.198 174.512 341.726 173.851 342.398 173.392C343.081 172.933 343.854 172.704 344.718 172.704C345.582 172.704 346.35 172.933 347.022 173.392C347.705 173.851 348.238 174.512 348.622 175.376C349.006 176.229 349.198 177.237 349.198 178.4C349.198 179.563 349.006 180.576 348.622 181.44C348.238 182.293 347.705 182.949 347.022 183.408C346.35 183.867 345.582 184.096 344.718 184.096ZM344.718 183.04C345.369 183.04 345.939 182.859 346.43 182.496C346.931 182.133 347.321 181.605 347.598 180.912C347.875 180.219 348.014 179.381 348.014 178.4C348.014 177.419 347.875 176.581 347.598 175.888C347.321 175.195 346.931 174.667 346.43 174.304C345.939 173.941 345.369 173.76 344.718 173.76C344.067 173.76 343.491 173.941 342.99 174.304C342.499 174.667 342.115 175.195 341.838 175.888C341.561 176.581 341.422 177.419 341.422 178.4C341.422 179.381 341.561 180.219 341.838 180.912C342.115 181.605 342.499 182.133 342.99 182.496C343.491 182.859 344.067 183.04 344.718 183.04Z" fill="white"/>
<path d="M357.96 180.16V179.168H362.152V180.16H357.96Z" fill="white"/>
<path d="M372.784 184V173.28L373.296 173.824H370.144V172.8H373.936V184H372.784ZM376.405 184V183.184L381.061 178.624C381.488 178.208 381.808 177.845 382.021 177.536C382.235 177.216 382.379 176.917 382.453 176.64C382.528 176.363 382.565 176.101 382.565 175.856C382.565 175.205 382.341 174.693 381.893 174.32C381.456 173.947 380.805 173.76 379.941 173.76C379.28 173.76 378.693 173.861 378.181 174.064C377.68 174.267 377.248 174.581 376.885 175.008L376.069 174.304C376.507 173.792 377.067 173.397 377.749 173.12C378.432 172.843 379.195 172.704 380.037 172.704C380.795 172.704 381.451 172.827 382.005 173.072C382.56 173.307 382.987 173.653 383.285 174.112C383.595 174.571 383.749 175.109 383.749 175.728C383.749 176.091 383.696 176.448 383.589 176.8C383.493 177.152 383.312 177.525 383.045 177.92C382.789 178.304 382.411 178.741 381.909 179.232L377.637 183.424L377.317 182.976H384.261V184H376.405ZM385.156 181.056V180.224L391.092 172.8H392.372L386.484 180.224L385.86 180.032H394.868V181.056H385.156ZM391.476 184V181.056L391.508 180.032V177.44H392.628V184H391.476Z" fill="white"/>
<path d="M32.824 36V24.8H33.8L41.528 34.528H41.016V24.8H42.184V36H41.208L33.496 26.272H34.008V36H32.824ZM50.8636 36V34.144L50.8156 33.84V30.736C50.8156 30.0213 50.613 29.472 50.2076 29.088C49.813 28.704 49.221 28.512 48.4316 28.512C47.8876 28.512 47.3703 28.6027 46.8796 28.784C46.389 28.9653 45.973 29.2053 45.6316 29.504L45.1196 28.656C45.5463 28.2933 46.0583 28.016 46.6556 27.824C47.253 27.6213 47.8823 27.52 48.5436 27.52C49.6316 27.52 50.469 27.792 51.0556 28.336C51.653 28.8693 51.9516 29.6853 51.9516 30.784V36H50.8636ZM47.9676 36.08C47.3383 36.08 46.789 35.9787 46.3196 35.776C45.861 35.5627 45.509 35.2747 45.2636 34.912C45.0183 34.5387 44.8956 34.112 44.8956 33.632C44.8956 33.1947 44.997 32.8 45.1996 32.448C45.413 32.0853 45.7543 31.7973 46.2236 31.584C46.7036 31.36 47.3436 31.248 48.1436 31.248H51.0396V32.096H48.1756C47.365 32.096 46.7996 32.24 46.4796 32.528C46.1703 32.816 46.0156 33.1733 46.0156 33.6C46.0156 34.08 46.2023 34.464 46.5756 34.752C46.949 35.04 47.4716 35.184 48.1436 35.184C48.7836 35.184 49.333 35.04 49.7916 34.752C50.261 34.4533 50.6023 34.0267 50.8156 33.472L51.0716 34.256C50.8583 34.8107 50.485 35.2533 49.9516 35.584C49.429 35.9147 48.7676 36.08 47.9676 36.08ZM65.5331 27.52C66.2158 27.52 66.8078 27.6533 67.3091 27.92C67.8211 28.176 68.2158 28.5707 68.4931 29.104C68.7811 29.6373 68.9251 30.3093 68.9251 31.12V36H67.7891V31.232C67.7891 30.3467 67.5758 29.68 67.1491 29.232C66.7331 28.7733 66.1411 28.544 65.3731 28.544C64.7971 28.544 64.2958 28.6667 63.8691 28.912C63.4531 29.1467 63.1278 29.4933 62.8931 29.952C62.6691 30.4 62.5571 30.944 62.5571 31.584V36H61.4211V31.232C61.4211 30.3467 61.2078 29.68 60.7811 29.232C60.3545 28.7733 59.7571 28.544 58.9891 28.544C58.4238 28.544 57.9278 28.6667 57.5011 28.912C57.0745 29.1467 56.7438 29.4933 56.5091 29.952C56.2851 30.4 56.1731 30.944 56.1731 31.584V36H55.0371V27.6H56.1251V29.872L55.9491 29.472C56.2051 28.864 56.6158 28.3893 57.1811 28.048C57.7571 27.696 58.4345 27.52 59.2131 27.52C60.0345 27.52 60.7331 27.728 61.3091 28.144C61.8851 28.5493 62.2585 29.1627 62.4291 29.984L61.9811 29.808C62.2265 29.1253 62.6585 28.576 63.2771 28.16C63.9065 27.7333 64.6585 27.52 65.5331 27.52ZM75.5739 36.08C74.6992 36.08 73.9312 35.8987 73.2699 35.536C72.6085 35.1627 72.0912 34.656 71.7179 34.016C71.3445 33.3653 71.1579 32.624 71.1579 31.792C71.1579 30.96 71.3339 30.224 71.6859 29.584C72.0485 28.944 72.5392 28.4427 73.1579 28.08C73.7872 27.7067 74.4912 27.52 75.2699 27.52C76.0592 27.52 76.7579 27.7013 77.3659 28.064C77.9845 28.416 78.4699 28.9173 78.8219 29.568C79.1739 30.208 79.3499 30.9493 79.3499 31.792C79.3499 31.8453 79.3445 31.904 79.3339 31.968C79.3339 32.0213 79.3339 32.08 79.3339 32.144H72.0219V31.296H78.7259L78.2779 31.632C78.2779 31.024 78.1445 30.4853 77.8779 30.016C77.6219 29.536 77.2699 29.1627 76.8219 28.896C76.3739 28.6293 75.8565 28.496 75.2699 28.496C74.6939 28.496 74.1765 28.6293 73.7179 28.896C73.2592 29.1627 72.9019 29.536 72.6459 30.016C72.3899 30.496 72.2619 31.0453 72.2619 31.664V31.84C72.2619 32.48 72.4005 33.0453 72.6779 33.536C72.9659 34.016 73.3605 34.3947 73.8619 34.672C74.3739 34.9387 74.9552 35.072 75.6059 35.072C76.1179 35.072 76.5925 34.9813 77.0299 34.8C77.4779 34.6187 77.8619 34.3413 78.1819 33.968L78.8219 34.704C78.4485 35.152 77.9792 35.4933 77.4139 35.728C76.8592 35.9627 76.2459 36.08 75.5739 36.08ZM89.3376 36.08C88.5056 36.08 87.759 35.8987 87.0976 35.536C86.447 35.1627 85.935 34.656 85.5616 34.016C85.1883 33.3653 85.0016 32.624 85.0016 31.792C85.0016 30.9493 85.1883 30.208 85.5616 29.568C85.935 28.928 86.447 28.4267 87.0976 28.064C87.759 27.7013 88.5056 27.52 89.3376 27.52C90.0523 27.52 90.6976 27.6587 91.2736 27.936C91.8496 28.2133 92.303 28.6293 92.6336 29.184L91.7856 29.76C91.4976 29.3333 91.1403 29.0187 90.7136 28.816C90.287 28.6133 89.823 28.512 89.3216 28.512C88.7243 28.512 88.1856 28.6507 87.7056 28.928C87.2256 29.1947 86.847 29.5733 86.5696 30.064C86.2923 30.5547 86.1536 31.1307 86.1536 31.792C86.1536 32.4533 86.2923 33.0293 86.5696 33.52C86.847 34.0107 87.2256 34.3947 87.7056 34.672C88.1856 34.9387 88.7243 35.072 89.3216 35.072C89.823 35.072 90.287 34.9707 90.7136 34.768C91.1403 34.5653 91.4976 34.256 91.7856 33.84L92.6336 34.416C92.303 34.96 91.8496 35.376 91.2736 35.664C90.6976 35.9413 90.0523 36.08 89.3376 36.08ZM100.129 36V34.144L100.081 33.84V30.736C100.081 30.0213 99.8786 29.472 99.4733 29.088C99.0786 28.704 98.4866 28.512 97.6973 28.512C97.1533 28.512 96.6359 28.6027 96.1453 28.784C95.6546 28.9653 95.2386 29.2053 94.8973 29.504L94.3853 28.656C94.8119 28.2933 95.3239 28.016 95.9213 27.824C96.5186 27.6213 97.1479 27.52 97.8093 27.52C98.8973 27.52 99.7346 27.792 100.321 28.336C100.919 28.8693 101.217 29.6853 101.217 30.784V36H100.129ZM97.2333 36.08C96.6039 36.08 96.0546 35.9787 95.5853 35.776C95.1266 35.5627 94.7746 35.2747 94.5293 34.912C94.2839 34.5387 94.1613 34.112 94.1613 33.632C94.1613 33.1947 94.2626 32.8 94.4653 32.448C94.6786 32.0853 95.0199 31.7973 95.4893 31.584C95.9693 31.36 96.6093 31.248 97.4093 31.248H100.305V32.096H97.4413C96.6306 32.096 96.0653 32.24 95.7453 32.528C95.4359 32.816 95.2812 33.1733 95.2812 33.6C95.2812 34.08 95.4679 34.464 95.8413 34.752C96.2146 35.04 96.7373 35.184 97.4093 35.184C98.0493 35.184 98.5986 35.04 99.0573 34.752C99.5266 34.4533 99.8679 34.0267 100.081 33.472L100.337 34.256C100.124 34.8107 99.7506 35.2533 99.2173 35.584C98.6946 35.9147 98.0333 36.08 97.2333 36.08ZM104.303 36V27.6H105.391V29.888L105.279 29.488C105.513 28.848 105.908 28.3627 106.463 28.032C107.017 27.6907 107.705 27.52 108.527 27.52V28.624C108.484 28.624 108.441 28.624 108.399 28.624C108.356 28.6133 108.313 28.608 108.271 28.608C107.385 28.608 106.692 28.88 106.191 29.424C105.689 29.9573 105.439 30.72 105.439 31.712V36H104.303ZM113.866 36.08C113.066 36.08 112.346 35.8987 111.706 35.536C111.076 35.1733 110.58 34.672 110.218 34.032C109.855 33.3813 109.674 32.6347 109.674 31.792C109.674 30.9387 109.855 30.192 110.218 29.552C110.58 28.912 111.076 28.416 111.706 28.064C112.346 27.7013 113.066 27.52 113.866 27.52C114.602 27.52 115.258 27.6853 115.834 28.016C116.42 28.3467 116.884 28.832 117.226 29.472C117.578 30.1013 117.753 30.8747 117.753 31.792C117.753 32.6987 117.583 33.472 117.242 34.112C116.9 34.752 116.436 35.2427 115.85 35.584C115.274 35.9147 114.612 36.08 113.866 36.08ZM113.946 35.072C114.543 35.072 115.076 34.9387 115.546 34.672C116.026 34.3947 116.399 34.0107 116.666 33.52C116.943 33.0187 117.082 32.4427 117.082 31.792C117.082 31.1307 116.943 30.5547 116.666 30.064C116.399 29.5733 116.026 29.1947 115.546 28.928C115.076 28.6507 114.543 28.512 113.946 28.512C113.359 28.512 112.831 28.6507 112.362 28.928C111.892 29.1947 111.519 29.5733 111.242 30.064C110.964 30.5547 110.826 31.1307 110.826 31.792C110.826 32.4427 110.964 33.0187 111.242 33.52C111.519 34.0107 111.892 34.3947 112.362 34.672C112.831 34.9387 113.359 35.072 113.946 35.072ZM117.114 36V33.472L117.226 31.776L117.066 30.08V24.128H118.202V36H117.114Z" fill="white"/>
<path d="M37.18 67.16C40.88 67.16 42.6 65.32 42.6 63.18C42.6 58.04 34.12 60.18 34.12 56.76C34.12 55.54 35.14 54.54 37.52 54.54C38.76 54.54 40.14 54.9 41.36 55.68L42.02 54.08C40.86 53.28 39.16 52.84 37.52 52.84C33.84 52.84 32.16 54.68 32.16 56.84C32.16 62.04 40.64 59.88 40.64 63.3C40.64 64.52 39.6 65.46 37.18 65.46C35.38 65.46 33.6 64.78 32.56 63.84L31.82 65.4C32.94 66.44 35.04 67.16 37.18 67.16ZM52.5466 56.4L48.8866 64.88L45.1866 56.4H43.1866L47.8666 66.98L47.5266 67.72C47.0066 68.94 46.4266 69.36 45.5066 69.36C44.7866 69.36 44.1266 69.08 43.6066 68.58L42.7866 70.02C43.4466 70.66 44.4866 71 45.5066 71C47.1266 71 48.3466 70.3 49.2866 68.06L54.4266 56.4H52.5466ZM59.7464 56.3C58.0464 56.3 56.4664 56.78 55.3664 57.66L56.1664 59.1C56.9864 58.4 58.2664 57.96 59.5264 57.96C61.4264 57.96 62.3664 58.9 62.3664 60.52V60.9H59.3264C56.1664 60.9 55.0664 62.3 55.0664 64C55.0664 65.84 56.5864 67.12 58.9864 67.12C60.6464 67.12 61.8264 66.56 62.4664 65.6V67H64.2864V60.6C64.2864 57.7 62.6464 56.3 59.7464 56.3ZM59.3064 65.64C57.8464 65.64 56.9664 64.98 56.9664 63.92C56.9664 63.02 57.5064 62.28 59.4064 62.28H62.3664V63.76C61.8864 64.98 60.7464 65.64 59.3064 65.64ZM73.4995 56.3C71.8795 56.3 70.5595 56.88 69.7595 57.9V52.16H67.8395V67H69.7595V61.54C69.7595 59.24 71.0795 58.02 73.1195 58.02C74.9395 58.02 75.9795 59.04 75.9795 61.12V67H77.8995V60.9C77.8995 57.78 76.0795 56.3 73.4995 56.3ZM96.5239 59.74C97.6239 59.2 98.4039 58.14 98.4039 56.62C98.4039 54.36 96.6039 53 93.3839 53H87.1039V67H93.7839C97.3239 67 99.1439 65.62 99.1439 63.22C99.1439 61.36 98.1039 60.18 96.5239 59.74ZM93.2039 54.62C95.2439 54.62 96.4039 55.38 96.4039 56.86C96.4039 58.34 95.2439 59.1 93.2039 59.1H89.1039V54.62H93.2039ZM93.7039 65.38H89.1039V60.72H93.7039C95.9239 60.72 97.1239 61.44 97.1239 63.06C97.1239 64.68 95.9239 65.38 93.7039 65.38ZM105.821 56.3C104.121 56.3 102.541 56.78 101.441 57.66L102.241 59.1C103.061 58.4 104.341 57.96 105.601 57.96C107.501 57.96 108.441 58.9 108.441 60.52V60.9H105.401C102.241 60.9 101.141 62.3 101.141 64C101.141 65.84 102.661 67.12 105.061 67.12C106.721 67.12 107.901 66.56 108.541 65.6V67H110.361V60.6C110.361 57.7 108.721 56.3 105.821 56.3ZM105.381 65.64C103.921 65.64 103.041 64.98 103.041 63.92C103.041 63.02 103.581 62.28 105.481 62.28H108.441V63.76C107.961 64.98 106.821 65.64 105.381 65.64ZM119.574 56.3C117.894 56.3 116.534 56.92 115.754 58V56.4H113.914V67H115.834V61.54C115.834 59.24 117.154 58.02 119.194 58.02C121.014 58.02 122.054 59.04 122.054 61.12V67H123.974V60.9C123.974 57.78 122.154 56.3 119.574 56.3ZM135.666 52.16V58C134.786 56.86 133.466 56.3 131.966 56.3C128.866 56.3 126.606 58.46 126.606 61.7C126.606 64.94 128.866 67.12 131.966 67.12C133.526 67.12 134.886 66.52 135.746 65.32V67H137.586V52.16H135.666ZM132.126 65.44C130.086 65.44 128.546 63.96 128.546 61.7C128.546 59.44 130.086 57.98 132.126 57.98C134.146 57.98 135.686 59.44 135.686 61.7C135.686 63.96 134.146 65.44 132.126 65.44ZM142.178 54.36C142.938 54.36 143.478 53.8 143.478 53.08C143.478 52.4 142.918 51.86 142.178 51.86C141.438 51.86 140.878 52.42 140.878 53.12C140.878 53.82 141.438 54.36 142.178 54.36ZM141.218 67H143.138V56.4H141.218V67Z" fill="white"/>
<defs>
<filter id="filter0_f_3_293" x="-65.9162" y="-296" width="781.623" height="657" filterUnits="userSpaceOnUse" color-interpolation-filters="sRGB">
<feFlood flood-opacity="0" result="BackgroundImageFix"/>
<feBlend mode="normal" in="SourceGraphic" in2="BackgroundImageFix" result="shape"/>
<feGaussianBlur stdDeviation="50" result="effect1_foregroundBlur_3_293"/>
</filter>
</defs>
</svg>
