<svg width="121" height="121" viewBox="0 0 121 121" fill="none" xmlns="http://www.w3.org/2000/svg">
<circle cx="60.5" cy="60.5" r="50" stroke="#E2DECD" stroke-width="21"/>
<path d="M110.5 60.5C110.5 49.5397 106.899 38.883 100.25 30.1696C93.6014 21.4561 84.2739 15.1687 73.7026 12.2746C63.1313 9.3805 51.902 10.0401 41.7422 14.1519C31.5824 18.2638 23.0552 25.6 17.4724 35.0319C11.8897 44.4638 9.56075 55.4688 10.8439 66.3538C12.1271 77.2387 16.9513 87.4004 24.5744 95.2755C32.1974 103.151 42.1968 108.303 53.0342 109.939C63.8717 111.576 74.9466 109.606 84.5551 104.333" stroke="#064061" stroke-width="21"/>
<path d="M110.5 60.5C110.5 52.0669 108.367 43.7708 104.299 36.3835C100.232 28.9962 94.362 22.7577 87.2357 18.2484C80.1095 13.7391 71.9585 11.1055 63.541 10.5926C55.1235 10.0797 46.713 11.7041 39.092 15.3149C31.471 18.9256 24.8871 24.4052 19.9527 31.244C15.0183 38.0828 11.8938 46.0585 10.8699 54.4292C9.84603 62.7999 10.956 71.2936 14.0965 79.1202C17.237 86.9467 22.3061 93.8517 28.8321 99.1929" stroke="#4EB7F2" stroke-width="21"/>
<path d="M110.5 60.5C110.5 50.3288 107.398 40.3996 101.608 32.0373C95.8185 23.675 87.6159 17.2773 78.0953 13.6981C68.5748 10.1189 58.189 9.52835 48.3241 12.0053C38.4592 14.4822 29.5843 19.9088 22.8837 27.5609" stroke="#208CC8" stroke-width="21"/>
</svg>
